<svg xmlns="http://www.w3.org/2000/svg" xmlns:xlink="http://www.w3.org/1999/xlink" width="375" height="379" viewBox="0 0 375 379">
    <defs>
        <path id="d" d="M0 .288h41.587V46.23H0z"/>
        <linearGradient id="e" x1="10.39%" x2="85.994%" y1="50%" y2="65.055%">
            <stop offset="0%" stop-color="#EED5BF"/>
            <stop offset="100%" stop-color="#D8AA8B"/>
        </linearGradient>
        <path id="g" d="M20.406.26C13.671.29 7.132 3.318 3.442 7.812a13.119 13.119 0 0 0-1.619 2.009c-.169.261-.268.55-.314.842C-.508 14.376.275 18.684.22 21.798c.133 2.054.485 4.067 1.146 5.883.535-2.794.348-5.668 1.015-8.485.196-.83 1.958-1.59 4.338-2.203a14.089 14.089 0 0 0-2.345 3.955l10.95-2.926c1.992-.533 3.66-1.556 5.285-2.59.037 0 .073-.004.11-.006-.12.098-.245.19-.361.292-.718.629-2.45 3.751-3.084 3.942l8.239-2.484c1.49-.448 2.998-.906 4.313-1.714.52-.32.916-.61 1.216-.877-.339 2.053 2.205 4.67 3.656 6.794.246 2.108.246 4.226.644 6.302.66-1.816 1.013-3.83 1.147-5.883-.057-3.114.726-7.422-1.29-11.134a2.178 2.178 0 0 0-.315-.842 13.37 13.37 0 0 0-2.133-2.514c-.193-1.72-1.31-3.4-2.94-4.564-2.285-1.632-5.405-2.356-8.464-2.47a21.983 21.983 0 0 0-.725-.015h-.215z"/>
        <linearGradient id="h" x1="48.278%" x2="69.09%" y1="67.289%" y2="46.287%">
            <stop offset="0%" stop-color="#6B2304"/>
            <stop offset="100%" stop-color="#904F21"/>
        </linearGradient>
        <circle id="a" cx="120" cy="121" r="111"/>
        <mask id="j" width="222" height="222" x="0" y="0" fill="#fff">
            <use xlink:href="#a"/>
        </mask>
        <circle id="b" cx="120" cy="111" r="111"/>
        <mask id="k" width="222" height="222" x="0" y="0" fill="#fff">
            <use xlink:href="#b"/>
        </mask>
        <circle id="c" cx="111" cy="111" r="111"/>
        <mask id="l" width="222" height="222" x="0" y="0" fill="#fff">
            <use xlink:href="#c"/>
        </mask>
        <path id="m" d="M0 .161h13.52v21.47H0z"/>
        <path id="o" d="M.557.161h13.68v21.47H.558z"/>
        <linearGradient id="q" x1="9.618%" x2="90.777%" y1="35.269%" y2="58.735%">
            <stop offset="0%" stop-color="#FFDFC4"/>
            <stop offset="100%" stop-color="#F7C39F"/>
        </linearGradient>
        <linearGradient id="r" x1="50%" x2="50%" y1="0%" y2="100%">
            <stop offset="0%" stop-color="#6C401A"/>
            <stop offset="100%" stop-color="#3A1E0B"/>
        </linearGradient>
        <linearGradient id="s" x1="50%" x2="50%" y1="0%" y2="64.795%">
            <stop offset="0%" stop-color="#885020"/>
            <stop offset="100%" stop-color="#3A1E0B"/>
        </linearGradient>
        <path id="t" d="M40.875 0C28.255 0 15.372 5.413 8.239 16.385 3.406 23.818 1.227 32.88.659 41.868.425 45.568.005 59.262 0 74.435v.553c.002 7.416.105 15.158.378 22.24.079 2.057 1.967 3.563 4.002 3.2 11.469-2.046 24.143-3.182 37.474-3.182 13.468 0 26.266 1.16 37.829 3.244 2.1.38 4.03-1.23 4.012-3.354-.173-21.768-2.253-49.728-2.603-55.268-.568-8.99-2.747-18.05-7.58-25.483C66.38 5.413 53.496 0 40.875 0z"/>
        <linearGradient id="u" x1="50%" x2="50%" y1="100.318%" y2="63.977%">
            <stop offset="0%" stop-color="#6B2304"/>
            <stop offset="100%" stop-color="#A34F21"/>
        </linearGradient>
        <path id="w" d="M12.265 18.5c-8.216 10.864-9.21 26.84-9.94 40.272-.43 7.929.554 15.396 1.82 22.841.223 1.175.474 2.346.75 3.516 1.078-11.954 6.892-26.386 10.833-33.318 8.018-14.106 27.107-21.523 42.068-28.82 3.76-1.835 2.512-7.675 2.556-11.735.047-4.411-5.31-6.937-9.87-7.417a44.51 44.51 0 0 0-4.649-.24C33.133 3.598 19.58 8.83 12.265 18.5"/>
        <path id="x" d="M0 .165h16.655v8.79H0z"/>
        <path id="z" d="M.157.008h30.78v15.804H.157z"/>
        <linearGradient id="B" x1="50%" x2="50%" y1="0%" y2="100%">
            <stop offset="0%" stop-color="#D08745"/>
            <stop offset="100%" stop-color="#A34F21"/>
        </linearGradient>
        <linearGradient id="C" x1="15.052%" x2="77.173%" y1="30.145%" y2="60.643%">
            <stop offset="0%" stop-color="#FDECDB"/>
            <stop offset="100%" stop-color="#F9D5B4"/>
        </linearGradient>
        <path id="D" d="M.208.318h13.478v22.077H.208z"/>
        <path id="F" d="M.168.009h31.144V16.49H.168z"/>
        <path id="H" d="M0 45.132h49V.868H0z"/>
        <linearGradient id="J" x1="50%" x2="50%" y1="0%" y2="100%">
            <stop offset="0%" stop-color="#EAC68A"/>
            <stop offset="100%" stop-color="#D19452"/>
        </linearGradient>
        <path id="K" d="M0 .333h9.657v15.615H0z"/>
        <path id="M" d="M.408.333h10.033v15.615H.408z"/>
        <path id="O" d="M.006.248h46.825v63.6H.006z"/>
        <linearGradient id="P" x1="0%" x2="90.974%" y1="30.39%" y2="57.326%">
            <stop offset="0%" stop-color="#F4D9C6"/>
            <stop offset="100%" stop-color="#E5B295"/>
        </linearGradient>
        <path id="R" d="M.439.076h46.174V40H.44z"/>
        <linearGradient id="S" x1="50%" x2="50%" y1="0%" y2="100%">
            <stop offset="0%" stop-color="#BA6D2B"/>
            <stop offset="100%" stop-color="#843B13"/>
        </linearGradient>
        <path id="U" d="M.214.178H9.84V16.81H.214z"/>
        <path id="W" d="M0 .04h13.971v.8H0z"/>
    </defs>
    <g fill="none" fill-rule="evenodd">
        <path fill="#F5F8FC" d="M-303 145.126c0-109 175-202 359-127s403 75 490 33 220.813 45 145.906 170C617 346.126 286 400.126 9 372.126c-277-28-312-118-312-227z"/>
        <g transform="translate(67 104)">
            <circle cx="121" cy="116" r="112" fill="#FFF" fill-rule="nonzero"/>
            <g transform="rotate(5 -312.23 1516.853)">
                <mask id="f" fill="#fff">
                    <use xlink:href="#d"/>
                </mask>
                <path fill="url(#e)" d="M39.757 20.803c-.506-.233-1.053-.269-1.6-.145.198-5.854-.64-20.896-17.526-20.356C3.794-.236 2.912 14.712 3.103 20.603a2.41 2.41 0 0 0-1.273.2c-1.765.814-2.356 3.66-1.319 6.356.872 2.27 2.62 4.672 4.203 4.892.139.576.278 1.105.415 1.554.49 1.61 1.376 4.304 2.647 5.476 3.415 3.146 7.657 5.935 10.28 6.902.472.174 1.508.253 2.575.246 1.066.007 2.102-.072 2.575-.246 2.623-.967 6.865-3.756 10.28-6.902 1.27-1.172 2.157-3.866 2.647-5.476.135-.446.273-.97.41-1.542 1.665.104 3.6-2.476 4.533-4.904 1.036-2.696.446-5.542-1.32-6.356" mask="url(#f)"/>
            </g>
            <g transform="rotate(5 -267.923 1553.209)">
                <mask id="i" fill="#fff">
                    <use xlink:href="#g"/>
                </mask>
                <path fill="url(#h)" d="M20.406.26C13.671.29 7.132 3.318 3.442 7.812a13.119 13.119 0 0 0-1.619 2.009c-.169.261-.268.55-.314.842C-.508 14.376.275 18.684.22 21.798c.133 2.054.485 4.067 1.146 5.883.535-2.794.348-5.668 1.015-8.485.196-.83 1.958-1.59 4.338-2.203a14.089 14.089 0 0 0-2.345 3.955l10.95-2.926c1.992-.533 3.66-1.556 5.285-2.59.037 0 .073-.004.11-.006-.12.098-.245.19-.361.292-.718.629-2.45 3.751-3.084 3.942l8.239-2.484c1.49-.448 2.998-.906 4.313-1.714.52-.32.916-.61 1.216-.877-.339 2.053 2.205 4.67 3.656 6.794.246 2.108.246 4.226.644 6.302.66-1.816 1.013-3.83 1.147-5.883-.057-3.114.726-7.422-1.29-11.134a2.178 2.178 0 0 0-.315-.842 13.37 13.37 0 0 0-2.133-2.514c-.193-1.72-1.31-3.4-2.94-4.564-2.285-1.632-5.405-2.356-8.464-2.47a21.983 21.983 0 0 0-.725-.015h-.215z" mask="url(#i)"/>
            </g>
            <g fill-rule="nonzero" stroke-dasharray="6" stroke-linecap="round" stroke-width="3">
                <use stroke="#DAE1EB" mask="url(#j)" xlink:href="#a"/>
                <use stroke="#BCD792" mask="url(#k)" xlink:href="#b"/>
                <use stroke="#F5E2C6" mask="url(#l)" xlink:href="#c"/>
            </g>
            <g transform="rotate(6 -841.627 1420.105)">
                <mask id="n" fill="#fff">
                    <use xlink:href="#m"/>
                </mask>
                <path fill="#F7C39F" d="M12.588 6.937c1.89 5.038.814 12.913-2.405 14.433-3.219 1.52-7.36-3.888-9.251-8.925C-.958 7.408.118 2.09 3.337.57c3.219-1.52 7.36 1.33 9.25 6.367" mask="url(#n)"/>
            </g>
            <g transform="rotate(6 -871.627 1992.539)">
                <mask id="p" fill="#fff">
                    <use xlink:href="#o"/>
                </mask>
                <path fill="#F7C39F" d="M1.5 6.937C-.413 11.975.677 19.85 3.933 21.37c3.258 1.52 7.449-3.888 9.362-8.925C15.207 7.408 14.118 2.09 10.86.57 7.604-.95 3.412 1.9 1.5 6.937" mask="url(#p)"/>
            </g>
            <path fill="url(#q)" d="M36.5 7.026C5.075 5.99 4.612 35.943 5.084 45.815c.342 7.189 2.059 17.64 3.588 22.828.879 2.98 2.47 7.964 4.752 10.13 6.13 5.821 13.745 10.981 18.453 12.771.85.323 2.708.468 4.623.455 1.915.013 3.774-.132 4.623-.455 4.708-1.79 12.323-6.95 18.453-12.771 2.281-2.166 3.874-7.15 4.752-10.13 1.53-5.188 3.246-15.64 3.588-22.828.472-9.872.009-39.825-31.416-38.789" transform="rotate(6 -412.302 1442.605)"/>
            <path fill="url(#r)" d="M37 79c-.439 1.845-2.948 4.996-6.03 5.534-2.692.47-5.377-.025-7.97-1.135.016 1.073.088 2.123.21 3.15 3.416 2.304 6.662 4.098 9.121 5.004.857.317 2.734.459 4.67.446 1.934.013 3.811-.13 4.668-.446 2.46-.906 5.705-2.7 9.12-5.005.123-1.026.196-2.076.211-3.15-2.593 1.11-5.278 1.606-7.97 1.136-3.082-.538-5.591-3.69-6.03-5.534z" transform="rotate(6 -412.302 1442.605)"/>
            <path fill="#3A1E0B" d="M154.358 88.209c1.91-5.753 4.619-11.228 8.054-16.174-.76-1.442-2.411-1.97-4.016-1.753-5.398 6.797-7.417 15.89-8.199 22.301-.168 3.78.04 7.524.812 10.964 1.444-5.016 1.678-10.304 3.349-15.338M209.692 94.024c-.672-6.024-2.184-11.943-4.516-17.494 1.044-1.253 2.768-1.426 4.293-.88 3.867 7.77 3.95 17.085 3.383 23.519-.621 3.731-1.604 7.35-3.074 10.554-.37-5.206.501-10.427-.086-15.699"/>
            <path fill="url(#s)" d="M67.559 44.808a30.202 30.202 0 0 1-1.672 2.77c-.187-4.497-.386-9.098-.998-11.806a62.324 62.324 0 0 0-3.596-11.006C54.674 27.413 46.23 29.014 37 29.014c-9.23 0-17.674-1.601-24.293-4.248a62.124 62.124 0 0 0-3.595 11.006c-.612 2.708-.812 7.309-1 11.805-.168 4.046-.328 8.007-.77 10.423-.966-2.774-1.553-10.504-1.856-15.154A28.802 28.802 0 0 1 3 31.152C3 13.948 18.223 0 37 0s34 13.948 34 31.152c0 4.137-.887 8.082-2.485 11.694l-.001.002v-.002a30.071 30.071 0 0 1-2.627 4.732c.17 4.045.329 8.006.772 10.422.965-2.773 1.552-10.502 1.855-15.152z" transform="rotate(6 -412.302 1442.605)"/>
            <path fill="#1D1D1B" d="M176.31 115.629c-1.546-.163-2.785-.572-3.2-1.405-.654-1.315.833-2.748 1.321-3.218 5.903-5.689 3.016-15.536 2.987-15.636a.633.633 0 1 1 1.212-.37c.032.109.801 2.694.794 6.066-.01 4.516-1.433 8.27-4.116 10.856-.96.926-1.18 1.502-1.065 1.732.525 1.053 5.81.946 10.42.185a.636.636 0 0 1 .205 1.255c-1.607.265-5.632.842-8.558.535"/>
            <path fill="#EB638E" d="M165.606 111.25c-14.925-10.34-2.336-19.923 1.282-12.197 5.148-6.804 15.47 5.187-1.282 12.197"/>
            <path fill="#000" d="M163.327 96.898c-1.637-.172-3.284.948-3.917 2.664-.451 1.222-1.312 5.592 6.272 10.965 8.537-3.68 8.604-8.132 8.417-9.422-.262-1.808-1.641-3.247-3.278-3.42-1.257-.131-2.475.49-3.43 1.752l-.632.837-.444-.95c-.67-1.432-1.732-2.294-2.988-2.426zm2.203 15.072l-.285-.197c-3.153-2.185-5.337-4.492-6.49-6.86-1.257-2.576-.983-4.57-.533-5.792.845-2.288 2.999-3.723 5.238-3.487 1.439.15 2.672.964 3.544 2.318 1.133-1.143 2.509-1.682 3.95-1.53 2.24.235 4.048 2.086 4.398 4.5.187 1.287.039 3.296-1.726 5.554-1.62 2.076-4.237 3.88-7.777 5.36l-.319.134z"/>
            <path fill="#EB638E" d="M191.119 113.931c-14.925-10.339-2.336-19.922 1.282-12.196 5.148-6.805 15.47 5.186-1.282 12.196"/>
            <path fill="#000" d="M188.84 99.58c-1.637-.172-3.284.948-3.917 2.663-.451 1.223-1.312 5.592 6.272 10.966 8.537-3.68 8.604-8.132 8.417-9.422-.262-1.81-1.641-3.248-3.278-3.42-1.257-.132-2.474.49-3.43 1.752l-.631.837-.445-.95c-.67-1.433-1.732-2.294-2.988-2.426zm2.203 15.072l-.285-.197c-3.153-2.185-5.337-4.493-6.49-6.86-1.256-2.576-.983-4.571-.533-5.793.845-2.288 2.998-3.722 5.238-3.487 1.439.151 2.673.965 3.544 2.318 1.133-1.143 2.51-1.682 3.95-1.53 2.24.235 4.048 2.086 4.398 4.5.187 1.288.04 3.296-1.726 5.555-1.62 2.076-4.237 3.879-7.777 5.36l-.319.134z"/>
            <path fill="#1D1D1B" d="M181.333 130.319c-2.004-.211-3.363-.607-3.404-.62a.634.634 0 0 1-.424-.79.63.63 0 0 1 .788-.427c.117.035 11.701 3.397 16.702-4.916.18-.3.569-.397.869-.215a.637.637 0 0 1 .214.872c-3.714 6.173-10.605 6.53-14.745 6.096"/>
            <path fill="#1D1D1B" d="M197.494 126.152a.627.627 0 0 1-.383-.184l-3.721-3.767a.639.639 0 0 1 .004-.9.63.63 0 0 1 .896.004l3.72 3.768a.637.637 0 0 1-.516 1.079"/>
            <g>
                <g transform="translate(78 83)">
                    <mask id="v" fill="#fff">
                        <use xlink:href="#t"/>
                    </mask>
                    <path fill="url(#u)" d="M40.875 0C28.255 0 15.372 5.413 8.239 16.385 3.406 23.818 1.227 32.88.659 41.868.425 45.568.005 59.262 0 74.435v.553c.002 7.416.105 15.158.378 22.24.079 2.057 1.967 3.563 4.002 3.2 11.469-2.046 24.143-3.182 37.474-3.182 13.468 0 26.266 1.16 37.829 3.244 2.1.38 4.03-1.23 4.012-3.354-.173-21.768-2.253-49.728-2.603-55.268-.568-8.99-2.747-18.05-7.58-25.483C66.38 5.413 53.496 0 40.875 0z" mask="url(#v)"/>
                    <path fill="#E5B295" d="M15.903 54.037c1.91 4.513.821 11.568-2.429 12.931-3.25 1.362-7.433-3.484-9.342-7.997-1.91-4.514-.823-9.276 2.43-10.64 3.25-1.362 7.432 1.193 9.34 5.706" mask="url(#v)"/>
                    <path fill="#F7C39F" d="M67.064 54.037c-1.91 4.513-.822 11.568 2.429 12.931 3.25 1.362 7.433-3.484 9.342-7.997 1.909-4.514.822-9.276-2.43-10.64-3.25-1.362-7.433 1.193-9.341 5.706" mask="url(#v)"/>
                    <path fill="url(#q)" d="M41.484 9.47C8.94 8.2 8.468 39.101 8.954 49.261c.353 7.376 3.263 18.098 4.832 23.42.902 3.057 2.536 5.88 4.876 8.102 6.632 6.299 16.818 9.351 20.967 10.387 1.22.304 2.49.304 3.708 0 4.15-1.036 14.336-4.088 20.967-10.387 2.341-2.222 3.975-5.045 4.876-8.102 1.569-5.322 4.48-16.044 4.832-23.42.486-10.16.015-41.063-32.528-39.793" mask="url(#v)"/>
                    <path fill="#843B13" d="M45.393 16.163c7.797.997 20.647 13.168 28.043 31.093.86 2.08 3.993 1.274 3.69-.956-1.661-12.217-6.713-23.852-14.083-31.593-2.671-2.805-5.733-5.205-9.138-5.868-3.181-.619-6.701.534-8.84 3.583-.268.382-.346.86-.279 1.322.133.93.2 2.367.607 2.42" mask="url(#v)"/>
                </g>
                <path fill="#1D1D1B" d="M117.555 141c-1.618 0-2.944-.289-3.464-1.106-.82-1.289.562-2.933 1.017-3.473 5.49-6.528 1.431-16.404 1.39-16.503a.66.66 0 0 1 1.214-.515c.045.109 1.122 2.7 1.482 6.19.48 4.675-.584 8.714-3.08 11.681-.892 1.062-1.057 1.682-.913 1.908.657 1.032 6.116.346 10.802-.942a.661.661 0 0 1 .348 1.276c-1.633.449-5.735 1.484-8.796 1.484"/>
                <g transform="translate(96.836 120)">
                    <mask id="y" fill="#fff">
                        <use xlink:href="#x"/>
                    </mask>
                    <path fill="#1D1D1B" d="M15.95 8.954a.696.696 0 0 1-.705-.686c0-3.711-3.103-6.73-6.917-6.73-3.814 0-6.918 3.019-6.918 6.73a.696.696 0 0 1-.705.686A.696.696 0 0 1 0 8.268C0 3.8 3.736.165 8.328.165c4.592 0 8.327 3.635 8.327 8.103a.696.696 0 0 1-.705.686" mask="url(#y)"/>
                </g>
                <path fill="#1D1D1B" d="M139.158 128c-.374 0-.677-.28-.677-.625 0-3.377-2.981-6.126-6.645-6.126-3.664 0-6.645 2.749-6.645 6.126 0 .345-.303.625-.677.625-.374 0-.678-.28-.678-.625 0-4.066 3.59-7.375 8-7.375 4.411 0 8 3.309 8 7.375 0 .345-.304.625-.678.625"/>
                <path fill="#FFF" d="M133.836 149c0 1.47-.243 2.89-.692 4.22a13.632 13.632 0 0 1-2.339 4.221c-2.74 3.377-7.081 5.559-11.969 5.559-4.888 0-9.23-2.182-11.969-5.559a13.63 13.63 0 0 1-2.338-4.22c-.45-1.33-.693-2.751-.693-4.221h30z"/>
                <g transform="translate(102.836 148)">
                    <mask id="A" fill="#fff">
                        <use xlink:href="#z"/>
                    </mask>
                    <path fill="#1D1D1B" d="M1.511 1.326c.057 1.198.27 2.376.633 3.51a13.649 13.649 0 0 0 2.19 4.168c2.686 3.489 6.772 5.49 11.213 5.49 4.44 0 8.527-2.001 11.212-5.49a13.591 13.591 0 0 0 2.823-7.678H1.512zm14.036 14.486c-4.864 0-9.34-2.192-12.28-6.013A14.92 14.92 0 0 1 .157.667V.008h30.78v.66a14.924 14.924 0 0 1-3.11 9.132c-2.941 3.82-7.417 6.012-12.28 6.012z" mask="url(#A)"/>
                </g>
                <path fill="#1D1D1B" d="M118.218 157h-11.764c-.342 0-.618-.448-.618-1s.276-1 .618-1h11.764c.341 0 .618.448.618 1s-.277 1-.618 1M130.304 157h-4.936c-.294 0-.532-.448-.532-1s.238-1 .532-1h4.936c.294 0 .532.448.532 1s-.238 1-.532 1"/>
                <path fill="url(#B)" d="M12.347 18.5c-8.216 10.864-9.21 26.84-9.94 40.272-.43 7.929.554 15.396 1.82 22.841.223 1.175.474 2.346.75 3.516C6.055 73.175 11.87 58.743 15.81 51.81c8.018-14.106 27.107-21.523 42.068-28.82 3.76-1.835 2.512-7.675 2.556-11.735.047-4.411-5.31-6.937-9.87-7.417a44.51 44.51 0 0 0-4.649-.24C33.215 3.598 19.661 8.83 12.347 18.5" transform="translate(77.918 83)"/>
            </g>
            <g>
                <path fill="#F9D5B4" d="M40.458 59.897c2.42 5.205 2.045 13.706-1.134 15.62-3.178 1.912-7.955-3.486-10.376-8.69-2.42-5.206-1.806-10.977 1.373-12.89 3.178-1.914 7.717.755 10.137 5.96M94.183 55.196c-1.48 5.547.367 13.854 3.829 15.186 3.462 1.332 7.23-4.814 8.71-10.36 1.479-5.546-.128-11.123-3.59-12.455-3.463-1.333-7.47 2.083-8.95 7.63"/>
                <path fill="url(#C)" d="M6.09 46.012c.371 7.78 2.223 19.092 3.874 24.707.948 3.226 2.667 8.62 5.13 10.965 6.616 6.3 14.835 11.885 19.917 13.823.916.349 2.923.506 4.99.492 2.065.014 4.073-.143 4.989-.492 5.082-1.938 13.3-7.523 19.917-13.823 2.462-2.344 4.181-7.74 5.13-10.965 1.65-5.615 3.502-16.927 3.873-24.707.51-10.685.01-43.105-33.91-41.984C6.081 2.907 5.58 35.327 6.09 46.012z" transform="rotate(-5 114.21 -257.968)"/>
                <g transform="rotate(-5 484.123 -457.698)">
                    <path fill="#FFF" d="M9.625 19.094c-4.825 0-8.75-3.893-8.75-8.679 0-4.786 3.925-8.68 8.75-8.68s8.75 3.894 8.75 8.68-3.925 8.68-8.75 8.68"/>
                    <path fill="#1D1D1B" d="M9.625.868C4.318.868 0 5.15 0 10.415c0 5.265 4.318 9.547 9.625 9.547s9.625-4.282 9.625-9.547c0-5.264-4.318-9.547-9.625-9.547m0 1.395c4.539 0 8.218 3.65 8.218 8.152 0 4.502-3.68 8.152-8.218 8.152-4.539 0-8.218-3.65-8.218-8.152 0-4.502 3.68-8.152 8.218-8.152"/>
                    <path fill="#1D1D1B" d="M11.375 10.415c0 .959-.783 1.736-1.75 1.736-.966 0-1.75-.777-1.75-1.736s.784-1.736 1.75-1.736c.967 0 1.75.777 1.75 1.736"/>
                    <path fill="#FFF" d="M39.375 19.094c-4.825 0-8.75-3.893-8.75-8.679 0-4.786 3.925-8.68 8.75-8.68s8.75 3.894 8.75 8.68-3.925 8.68-8.75 8.68"/>
                    <path fill="#1D1D1B" d="M39.375.868c-5.307 0-9.625 4.283-9.625 9.547 0 5.265 4.318 9.547 9.625 9.547S49 15.68 49 10.415C49 5.151 44.682.868 39.375.868m0 1.395c4.539 0 8.218 3.65 8.218 8.152 0 4.502-3.68 8.152-8.218 8.152-4.539 0-8.218-3.65-8.218-8.152 0-4.502 3.68-8.152 8.218-8.152"/>
                    <path fill="#1D1D1B" d="M41.125 10.415c0 .959-.784 1.736-1.75 1.736-.967 0-1.75-.777-1.75-1.736s.783-1.736 1.75-1.736c.966 0 1.75.777 1.75 1.736"/>
                    <g transform="translate(19.25)">
                        <mask id="E" fill="#fff">
                            <use xlink:href="#D"/>
                        </mask>
                        <path fill="#1D1D1B" d="M4.064 22.395c-1.678 0-3.053-.29-3.592-1.11-.85-1.293.583-2.943 1.055-3.486 5.68-6.538 1.484-16.46 1.44-16.56a.657.657 0 0 1 .364-.87.69.69 0 0 1 .895.354C4.273.832 5.39 3.43 5.763 6.935c.498 4.69-.606 8.743-3.193 11.72-.925 1.066-1.096 1.688-.947 1.915.68 1.035 6.34.347 11.2-.945a.685.685 0 0 1 .839.465.662.662 0 0 1-.478.815c-1.694.45-5.946 1.49-9.12 1.49" mask="url(#E)"/>
                    </g>
                    <path fill="#1D1D1B" d="M39.375 29.51c0 1.549-.24 3.046-.687 4.447a14.654 14.654 0 0 1-2.318 4.449 14.898 14.898 0 0 1-11.87 5.858c-4.847 0-9.152-2.3-11.87-5.858a14.647 14.647 0 0 1-2.318-4.449 14.655 14.655 0 0 1-.687-4.448h29.75z"/>
                    <g transform="translate(8.75 28.642)">
                        <mask id="G" fill="#fff">
                            <use xlink:href="#F"/>
                        </mask>
                        <path fill="#1D1D1B" d="M1.538 1.383c.058 1.25.273 2.478.64 3.66A14.382 14.382 0 0 0 4.396 9.39c2.717 3.64 6.852 5.726 11.345 5.726s8.628-2.087 11.345-5.726A14.39 14.39 0 0 0 29.3 5.044c.368-1.183.583-2.412.64-3.661H1.538zM15.74 16.49c-4.921 0-9.45-2.286-12.425-6.272A15.755 15.755 0 0 1 .887 5.457 15.985 15.985 0 0 1 .167.696V.009h31.145v.687c0 1.626-.242 3.228-.72 4.761a15.77 15.77 0 0 1-2.427 4.763c-2.976 3.985-7.504 6.27-12.425 6.27z" mask="url(#G)"/>
                    </g>
                    <path fill="#FFF" d="M39.375 29.51c0 1.51-.24 2.971-.687 4.34H10.312a13.978 13.978 0 0 1-.687-4.34h29.75z"/>
                    <path fill="#1D1D1B" d="M10.909 33.166h28.057a14.69 14.69 0 0 0 .599-3.842H10.31c.03 1.31.23 2.6.599 3.842zm28.559.683h-29.06l-.076-.239a15.385 15.385 0 0 1-.707-4.627v-.341H40.25v.34c0 1.581-.238 3.139-.707 4.628l-.075.24z"/>
                    <mask id="I" fill="#fff">
                        <use xlink:href="#H"/>
                    </mask>
                    <path fill="#1D1D1B" d="M14.875 33.85h.875v-4.34h-.875zM20.125 33.85H21v-4.34h-.875zM26.25 33.85h.875v-4.34h-.875zM31.5 33.85h.875v-4.34H31.5z" mask="url(#I)"/>
                    <path fill="#FFF" d="M36.75 38.189c-2.704 3.69-6.988 6.075-11.812 6.075-4.825 0-9.11-2.385-11.813-6.075H36.75z" mask="url(#I)"/>
                    <path fill="#1D1D1B" d="M13.646 38.813c2.805 3.076 6.881 4.827 11.292 4.827 4.41 0 8.486-1.751 11.29-4.827H13.647zm11.292 5.451c-4.86 0-9.334-2.032-12.273-5.575l-.415-.5h25.375l-.415.5c-2.94 3.543-7.412 5.575-12.272 5.575z" mask="url(#I)"/>
                    <path fill="#1D1D1B" d="M14.875 40.792h.875V38.19h-.875zM20.125 43.396H21V38.19h-.875zM26.25 43.396h.875V38.19h-.875zM31.5 41.66h.875V38.19H31.5z" mask="url(#I)"/>
                </g>
                <path fill="url(#J)" d="M45.91 87.767c-3.277-.593-5.944-4.068-6.41-6.102-.465 2.034-3.133 5.509-6.41 6.102C24.978 89.237 16.917 82.267 11 75c.948 2.578 2.192 5.244 3.73 6.712C21.307 88 29.483 93.574 34.537 95.508c.91.348 2.906.505 4.962.491 2.055.014 4.052-.143 4.963-.491C49.517 93.574 57.69 88 64.272 81.712 65.808 80.244 67.052 77.578 68 75c-5.916 7.269-13.978 14.238-22.09 12.767M11.092 19.094c.63-1.906 2.538-4.45 4.986-7.123C23.188 4.207 33.171.038 43.092 0h.28c5.193.022 10.365 1.176 15.085 3.54C64.127 6.382 70.319 10.86 76 8.049c-1.128 4.315-3.45 8.193-6.496 11.084 3.995 7.39 4.963 16.065 5.071 22.302-.252 4.036-.917 7.995-2.168 11.566-1.012-5.494-.657-11.144-1.917-16.683a66.632 66.632 0 0 0-4.973-14.219 18.2 18.2 0 0 1-2.462 1.162c-6.197 2.367-12.982 1.221-19.371-.364-10.025-2.488-16.72-2.426-26.616-.768a20.05 20.05 0 0 1-2.146.254 66.657 66.657 0 0 0-4.837 13.935C8.825 41.857 9.18 47.506 8.168 53 6.918 49.429 6.253 45.47 6 41.434c.108-6.247 1.08-14.941 5.092-22.34z" transform="rotate(-5 114.21 -257.968)"/>
            </g>
            <g>
                <path fill="#F2B78B" d="M66.277 173.796c-.953-4.069-1.925-7.874-2.136-8.915a.265.265 0 0 0-.313-.215l-19.554 4.156a.265.265 0 0 0-.197.324c.229 1.035.883 4.927 1.665 9.045 1.699 1.12 7.306 2.033 10.789 1.316 3.628-.747 8.477-4.271 9.746-5.711"/>
                <g transform="rotate(-12 705.567 -29.403)">
                    <mask id="L" fill="#fff">
                        <use xlink:href="#K"/>
                    </mask>
                    <path fill="#E5B295" d="M8.991 5.262c1.35 3.664.582 9.39-1.717 10.496-2.3 1.106-5.258-2.828-6.609-6.491C-.685 5.603.085 1.737 2.384.63c2.299-1.106 5.257.967 6.607 4.63" mask="url(#L)"/>
                </g>
                <g transform="rotate(-12 683.067 -243.477)">
                    <mask id="N" fill="#fff">
                        <use xlink:href="#M"/>
                    </mask>
                    <path fill="#E5B295" d="M1.1 5.262c-1.403 3.664-.604 9.39 1.784 10.496 2.39 1.106 5.462-2.828 6.866-6.491 1.402-3.664.603-7.53-1.785-8.636-2.389-1.106-5.463.967-6.865 4.63" mask="url(#N)"/>
                </g>
                <g transform="rotate(-12 575.123 -34.932)">
                    <mask id="Q" fill="#fff">
                        <use xlink:href="#O"/>
                    </mask>
                    <path fill="url(#P)" d="M23.419.268C.062-.508-.282 21.904.069 29.29c.255 5.38 1.53 13.2 2.666 17.081.653 2.23 1.837 5.96 3.532 7.58 4.557 4.356 10.216 8.217 13.716 9.556.63.242 2.013.35 3.436.341 1.423.01 2.805-.099 3.436-.341 3.5-1.34 9.16-5.2 13.715-9.555 1.696-1.621 2.88-5.35 3.532-7.58C45.24 42.49 46.515 34.67 46.77 29.29c.351-7.386.007-29.798-23.35-29.022" mask="url(#Q)"/>
                </g>
                <g transform="rotate(-12 713.081 -49.432)">
                    <mask id="T" fill="#fff">
                        <use xlink:href="#R"/>
                    </mask>
                    <path fill="url(#S)" d="M40.25 18.97c-.46 1.102-2.01 1.174-2.558.11-.932-1.81-2.533-3.743-4.694-4.797-5.242-2.557-9.32.59-9.32.59 2.185.063 5.017.533 6.213 2.62 4.2 7.33-5.971 8.523-6.365 8.132-.395.39-10.566-.801-6.366-8.132 1.196-2.087 4.03-2.557 6.212-2.62 0 0-4.076-3.147-9.32-.59-2.16 1.054-3.76 2.988-4.693 4.797-.548 1.064-2.098.992-2.559-.11C5.062 14.81 2.34 7.412.44.075c0 0 .438 9.107 2.2 17.06 1.116 5.037 2.542 17.111 17.714 22.41 1.726.602 4.585.605 6.314.01 15.37-5.292 16.628-17.379 17.746-22.42 1.762-7.953 2.2-17.06 2.2-17.06-1.902 7.337-4.623 14.734-6.362 18.893" mask="url(#T)"/>
                </g>
                <g>
                    <g transform="rotate(-12 665.024 -140.576)">
                        <mask id="V" fill="#fff">
                            <use xlink:href="#U"/>
                        </mask>
                        <path fill="#1D1D1B" d="M2.968 16.81c-1.198 0-2.18-.219-2.566-.836-.607-.975.417-2.218.754-2.626C5.214 8.422 2.216.948 2.185.872a.505.505 0 0 1 .26-.655.484.484 0 0 1 .639.266c.034.082.831 2.041 1.097 4.68.357 3.533-.432 6.587-2.28 8.83-.661.803-.783 1.271-.676 1.442.486.78 4.53.262 8-.712a.486.486 0 0 1 .598.35.501.501 0 0 1-.341.614c-1.21.34-4.247 1.123-6.514 1.123" mask="url(#V)"/>
                    </g>
                    <path fill="#FFF" d="M38.002 144.597l-4.317.917a6 6 0 0 0 11.738-2.495l-4.695.998-2.726.58z"/>
                    <path fill="#1D1D1B" d="M34.66 145.287c.83 2.707 3.61 4.384 6.427 3.786 2.816-.599 4.675-3.262 4.331-6.073l-10.758 2.287zm6.63 4.745c-3.505.745-6.964-1.505-7.71-5.016l-.103-.48 12.716-2.703.102.48c.746 3.51-1.499 6.974-5.004 7.719z"/>
                    <path fill="#1D1D1B" d="M40.532 144.059c.115.54-.449 1.118-1.26 1.29-.81.172-1.56-.126-1.674-.666l2.934-.624z"/>
                    <g transform="rotate(-12 690.552 -80.732)">
                        <mask id="X" fill="#fff">
                            <use xlink:href="#W"/>
                        </mask>
                        <path fill="#000" d="M13.48.84H.49C.22.84 0 .66 0 .44c0-.221.22-.4.491-.4H13.48c.27 0 .491.179.491.4 0 .22-.22.4-.491.4" mask="url(#X)"/>
                    </g>
                    <path fill="#FFF" d="M57.565 140.439l-4.317.917a6 6 0 0 0 11.738-2.495l-4.695.998-2.726.58z"/>
                    <path fill="#1D1D1B" d="M53.245 141.337c.83 2.707 3.61 4.384 6.427 3.785 2.816-.598 4.675-3.262 4.331-6.072l-10.758 2.287zm6.63 4.745c-3.505.745-6.965-1.506-7.711-5.017l-.102-.48 12.716-2.702.102.48c.746 3.51-1.499 6.973-5.004 7.719z"/>
                    <path fill="#1D1D1B" d="M60.095 139.9c.115.541-.45 1.119-1.26 1.29-.81.173-1.56-.125-1.674-.665l2.934-.624z"/>
                    <path fill="#000" d="M64.859 135.821l-12.731 2.706a.496.496 0 0 1-.586-.386.496.496 0 0 1 .378-.592l12.731-2.706a.496.496 0 0 1 .585.387.496.496 0 0 1-.377.591"/>
                </g>
            </g>
        </g>
    </g>
</svg>
