<svg xmlns="http://www.w3.org/2000/svg" width="303" height="381" viewBox="0 0 303 381">
    <defs>
        <radialGradient id="a" cx="55.719%" cy="62.682%" r="63.185%" fx="55.719%" fy="62.682%">
            <stop offset="0%" stop-color="#FFC273"/>
            <stop offset="100%" stop-color="#F47523"/>
        </radialGradient>
        <linearGradient id="b" x1="93.206%" x2="-29.258%" y1=".764%" y2="65.882%">
            <stop offset="0%" stop-color="#FFD746"/>
            <stop offset="100%" stop-color="#FFA256"/>
        </linearGradient>
    </defs>
    <g fill="none" fill-rule="evenodd">
        <path fill="#F5F8FC" d="M0 154.126c0-109 175-202 359-127s403 75 490 33 220.813 45 145.906 170c-74.906 125-405.906 179-682.906 151-277-28-312-118-312-227z"/>
        <g transform="translate(7 113)">
            <circle cx="109" cy="109" r="109" fill="url(#a)"/>
            <circle cx="103" cy="32" r="17" fill="#F67F2D"/>
            <circle cx="158" cy="105" r="34" fill="#F89241"/>
            <circle cx="68" cy="40" r="9" fill="#F47725"/>
        </g>
        <path fill="#314057" d="M55.02 203.396l-8.698-7.298-.903.548 9.193 7.713z"/>
        <path fill="#314057" d="M45.355 196.592a2.322 2.322 0 0 0-.228 3.725l5.939 4.983a2.37 2.37 0 0 0 3.679-.829l-9.39-7.88z"/>
        <path fill="#EBEEF0" stroke="#314057" d="M70.577 165.974c.084-.025.168-.049.253-.072l-.457-.099.204.171zm4.597 3.826l.278-.588-.452-.214-.323.382.497.42zm5.898 4.98l.202.171-.175-.431c-.008.087-.017.173-.027.26zm-29.871 24.164l-.321.383.383.321.321-.383-.383-.321z"/>
        <path fill="#314057" d="M81.597 174.568l.556-5.615a4.728 4.728 0 0 0-1.685-4.11l-4.322 5.15 5.451 4.575z"/>
        <path fill="#314057" d="M80.468 164.843a4.727 4.727 0 0 0-4.339-.945l-5.434 1.522 5.45 4.574 4.323-5.151z"/>
        <path fill="#36ABFF" d="M71.357 187.59c-2.7 3.22-7.52 3.624-10.762.902-3.243-2.72-3.683-7.536-.982-10.755 2.702-3.22 7.52-3.623 10.763-.902 3.243 2.721 3.683 7.537.981 10.756"/>
        <path fill="#77C7FF" d="M68.066 181.384a2.76 2.76 0 0 1-3.89.328 2.76 2.76 0 0 1-.353-3.888 2.76 2.76 0 0 1 3.89-.328 2.76 2.76 0 0 1 .353 3.888"/>
        <path fill="#314057" d="M69.121 195.569l-6.913 8.24 1.696 1.423 6.174-7.358z"/>
        <path fill="#314057" d="M72.328 207.845c.777-.925.97-2.21.504-3.334l-2.754-6.637-3.114 3.712-3.06 3.646 4.834 4.056a1.814 1.814 0 0 0 2.557-.21l1.033-1.233z"/>
        <path fill="#474953" d="M52.179 181.352l-6.914 8.24-1.697-1.424 6.174-7.358z"/>
        <path fill="#314057" d="M39.532 180.326a3.247 3.247 0 0 1 3.196-1.075l7.014 1.56-6.174 7.357-4.834-4.056a1.814 1.814 0 0 1-.236-2.554l1.034-1.232zM49.757 201.448a1.207 1.207 0 0 1-.157-1.695l5.81-6.923a1.207 1.207 0 0 1 1.695-.14c.51.428.58 1.19.157 1.695l-5.81 6.923a1.207 1.207 0 0 1-1.695.14"/>
        <path fill="url(#b)" fill-rule="nonzero" d="M101.587 247.541c11.866-15.18 21.314-4.902 10.832 8.508s-24.385 38.416-27.274 57.354c-1.669 10.944.406 21.27 4.343 26.82 4.38 6.17 14.007 14.592 27.692 14.121-27.92 2.659-48.248-11.636-43.487-42.854 3.27-21.435 16.029-48.768 27.894-63.949z" transform="translate(-72 -32)"/>
    </g>
</svg>
