<svg xmlns="http://www.w3.org/2000/svg" width="354" height="326" viewBox="0 0 354 326">
    <defs>
        <linearGradient id="a" x1="34.198%" x2="46.198%" y1="1.767%" y2="59.784%">
            <stop offset="0%" stop-color="#D7ED99"/>
            <stop offset="100%" stop-color="#AED660"/>
        </linearGradient>
        <linearGradient id="b" x1="30.262%" x2="47.299%" y1="5.322%" y2="77.18%">
            <stop offset="0%" stop-color="#CFE68F"/>
            <stop offset="100%" stop-color="#A2C956"/>
        </linearGradient>
        <linearGradient id="c" x1="63.834%" x2="27.335%" y1="36.043%" y2="54.988%">
            <stop offset="0%" stop-color="#B1DF92"/>
            <stop offset="100%" stop-color="#79BB59"/>
        </linearGradient>
        <linearGradient id="d" x1="23.601%" x2="50%" y1="22.497%" y2="100%">
            <stop offset="0%" stop-color="#8ED995"/>
            <stop offset="100%" stop-color="#55B15C"/>
        </linearGradient>
        <linearGradient id="e" x1="41.951%" x2="30.865%" y1="13.032%" y2="93.167%">
            <stop offset="0%" stop-color="#70BB78"/>
            <stop offset="100%" stop-color="#4EA655"/>
        </linearGradient>
        <linearGradient id="f" x1="50%" x2="50%" y1="3.703%" y2="100%">
            <stop offset="0%" stop-color="#DBF3A4"/>
            <stop offset="100%" stop-color="#CADFA1"/>
        </linearGradient>
        <linearGradient id="g" x1="92.639%" x2="4.108%" y1="35.554%" y2="35.554%">
            <stop offset="0%" stop-color="#F6644A"/>
            <stop offset="100%" stop-color="#E93524"/>
        </linearGradient>
    </defs>
    <g fill="none" fill-rule="evenodd">
        <path fill="#F5F8FC" d="M-663 105.126c0-109 175-202 359-127s403 75 490 33 220.813 45 145.906 170C257 306.126-74 360.126-351 332.126c-277-28-312-118-312-227z"/>
        <g fill-rule="nonzero" transform="translate(49 38)">
            <g transform="translate(0 205)">
                <ellipse cx="143" cy="22.5" fill="#ECF3D0" rx="142.997" ry="22.5"/>
                <ellipse cx="143" cy="22.5" fill="#D7E4A0" rx="126.845" ry="19.5"/>
            </g>
            <path fill="url(#a)" d="M98.712 40.119l14.42-35.671a5 5 0 0 1 9.116-.347l32.464 65.486L144.837 78 98.712 40.119z" transform="translate(29 29)"/>
            <path fill="url(#b)" d="M74.034 82.08l19.189-41.657a7 7 0 0 1 10.916-2.384l42.03 36.07L107.812 111 74.034 82.08z" transform="translate(29 29)"/>
            <path fill="url(#c)" d="M102.508 110.015l48.744-42.765a5 5 0 0 1 7.758 1.499L224 197l-121.492-86.985z" transform="translate(29 29)"/>
            <path fill="url(#d)" d="M1.342 190.173L67.66 83.952a7 7 0 0 1 10.237-1.817L221.79 194.104a4 4 0 0 1-2.027 7.133l-93 10.045a100 100 0 0 1-22.684-.138L5.715 199.308a6 6 0 0 1-4.373-9.135z" transform="translate(29 29)"/>
            <path fill="url(#e)" d="M112.18 207.879l27.836-66.78a7 7 0 0 1 10.776-2.818l70.973 55.564a4 4 0 0 1-2.04 7.126l-102.564 10.991a6.214 6.214 0 0 1-3.983-.927 2.567 2.567 0 0 1-.997-3.156z" transform="translate(29 29)"/>
            <path fill="url(#f)" d="M.95 196l128.577-69.222a9 9 0 0 0 4.267-5.065l.29-.862a5.493 5.493 0 0 0-2.443-6.49l-17.735-10.34a3 3 0 0 1-.434-4.877l33.716-28.692a3 3 0 0 0-.077-4.633L113.163 38.84a3 3 0 0 1-.03-4.672l9.967-8.14a2 2 0 0 0 .667-2.07L117.313 0l2.652 21.327a3 3 0 0 1-1.217 2.8l-14.02 10.153a3 3 0 0 0-.182 4.718l34.597 29.36a3 3 0 0 1-.34 4.825l-37.25 23.512a2 2 0 0 0-.195 3.243l17.317 14.088a3 3 0 0 1-.247 4.835L.949 196z" transform="translate(29 29)"/>
            <path stroke="#FFF" stroke-dasharray="4" d="M29.95 225l123.161-73.235a4 4 0 0 0 .506-6.52l-16.373-13.55a2 2 0 0 1 .063-3.131l35.88-27.348a2 2 0 0 0 .078-3.119L137.146 67.6a2 2 0 0 1 .026-3.078l13.204-10.77a2 2 0 0 0 .702-1.912L147.053 30"/>
            <circle cx="151.5" cy="52.5" r="2.5" fill="#EC3D2B"/>
            <circle cx="136.5" cy="66.5" r="2.5" fill="#EC3D2B"/>
            <circle cx="175.5" cy="98.5" r="2.5" fill="#EC3D2B"/>
            <circle cx="136.5" cy="128.5" r="2.5" fill="#EC3D2B"/>
            <circle cx="155.5" cy="149.5" r="2.5" fill="#EC3D2B"/>
            <path fill="url(#g)" d="M147 2c2.507 1.47 5.31 2.453 8.408 2.948 4.647.742 3.703-.936 10.05 0a53.43 53.43 0 0 1 9.233 2.2 1 1 0 0 1-.044 1.91l-9.19 2.628c-4.066 2.066-7.416 3.635-10.049 4.708a71.872 71.872 0 0 1-8.408 2.81V2z"/>
            <g fill="#314057" transform="translate(144)">
                <path d="M1 4h3v28H1z"/>
                <circle cx="2.5" cy="2.5" r="2.5"/>
            </g>
        </g>
    </g>
</svg>
